<?xml version="1.0" standalone="no"?>
<!DOCTYPE svg PUBLIC "-//W3C//DTD SVG 20010904//EN"
 "http://www.w3.org/TR/2001/REC-SVG-20010904/DTD/svg10.dtd">
<svg version="1.0" xmlns="http://www.w3.org/2000/svg"
 width="96.000000pt" height="96.000000pt" viewBox="0 0 96.000000 96.000000"
 preserveAspectRatio="xMidYMid meet">
<metadata>
Created by potrace 1.15, written by Peter Selinger 2001-2017
</metadata>
<g transform="translate(0.000000,96.000000) scale(0.100000,-0.100000)"
fill="#000000" stroke="none">
<path d="M260 860 l0 -100 85 0 85 0 0 -61 c0 -58 -2 -63 -43 -105 -41 -42
-44 -44 -104 -44 l-63 0 0 -100 0 -100 -50 0 -50 0 0 -86 c0 -75 2 -85 18 -83
9 1 32 1 50 0 l32 -1 0 -55 0 -55 70 0 c42 0 70 -4 70 -10 0 -24 50 -60 83
-60 70 0 103 85 52 135 -38 38 -102 27 -124 -21 -9 -21 -17 -24 -71 -24 l-61
0 3 48 3 47 53 3 52 3 0 79 0 79 -52 3 -53 3 0 85 0 85 44 3 c41 3 47 0 98
-50 l53 -52 53 52 c48 48 56 52 100 52 l47 0 0 -90 0 -90 -50 0 -50 0 0 -85 0
-86 113 3 112 3 3 38 c3 35 5 37 38 37 l34 0 0 305 0 305 -105 0 -105 0 0 45
0 45 -185 0 -185 0 0 -100z m340 0 l0 -80 -160 0 -160 0 0 80 0 80 160 0 160
0 0 -80z m220 -295 l0 -285 -25 0 c-14 0 -26 6 -26 13 -1 6 -2 17 -4 22 -1 6
-3 16 -3 23 -1 8 -19 12 -52 12 l-50 0 0 100 0 100 -57 0 c-55 0 -59 2 -105
47 -46 46 -48 49 -48 105 l0 58 85 0 85 0 0 38 c0 21 3 42 7 45 3 4 48 7 100
7 l93 0 0 -285z m-498 -291 c1 -31 1 -58 -1 -60 -2 -2 -44 -4 -93 -4 l-88 0 0
60 0 60 89 0 89 0 4 -56z m418 -4 l0 -60 -90 0 -90 0 0 60 0 60 90 0 90 0 0
-60z"/>
</g>
</svg>
