<?xml version="1.0" standalone="no"?>
<!DOCTYPE svg PUBLIC "-//W3C//DTD SVG 20010904//EN"
 "http://www.w3.org/TR/2001/REC-SVG-20010904/DTD/svg10.dtd">
<svg version="1.0" xmlns="http://www.w3.org/2000/svg"
 width="150.000000pt" height="150.000000pt" viewBox="0 0 150.000000 150.000000"
 preserveAspectRatio="xMidYMid meet">
<metadata>
Created by potrace 1.15, written by Peter Selinger 2001-2017
</metadata>
<g transform="translate(0.000000,150.000000) scale(0.100000,-0.100000)"
fill="#000000" stroke="none">
<path d="M726 1101 c-16 -31 -34 -41 -72 -41 -31 0 -30 -11 2 -41 22 -21 25
-30 20 -66 -3 -24 -4 -43 -1 -43 2 0 20 8 40 17 33 16 37 16 70 0 20 -9 37
-17 39 -17 2 0 1 19 -1 43 -4 36 -1 46 21 66 32 30 33 41 2 41 -38 0 -56 10
-72 41 -8 16 -19 29 -24 29 -5 0 -16 -13 -24 -29z"/>
<path d="M377 955 c-12 -26 -23 -35 -41 -35 -13 0 -32 -3 -41 -6 -14 -6 -12
-11 11 -35 23 -24 26 -34 21 -68 -6 -45 0 -48 44 -26 27 14 33 14 61 0 45 -22
49 -20 42 27 -6 38 -4 44 22 65 24 19 27 25 14 33 -8 5 -27 10 -43 10 -21 0
-31 8 -44 35 -9 19 -20 35 -23 35 -3 0 -14 -16 -23 -35z"/>
<path d="M1077 955 c-13 -27 -23 -35 -44 -35 -16 0 -35 -5 -43 -10 -13 -8 -10
-14 14 -33 26 -21 28 -27 22 -65 -7 -47 0 -51 40 -25 23 15 28 15 60 0 49 -24
53 -22 47 24 -5 34 -2 44 21 68 23 24 25 29 11 35 -9 3 -28 6 -41 6 -18 0 -29
9 -41 35 -9 19 -20 35 -23 35 -3 0 -14 -16 -23 -35z"/>
<path d="M705 788 c-61 -33 -73 -107 -26 -160 41 -47 101 -47 142 0 76 84 -18
214 -116 160z"/>
<path d="M240 629 c-14 -32 -44 -49 -88 -49 l-26 0 32 -33 c30 -31 32 -38 26
-76 l-7 -43 39 20 c39 20 39 20 78 0 l39 -20 -5 46 c-5 42 -3 49 23 70 35 30
36 36 7 36 -44 0 -66 12 -78 41 -18 42 -26 43 -40 8z"/>
<path d="M1225 628 c-18 -36 -38 -48 -82 -48 -30 0 -29 -6 6 -36 26 -21 28
-28 23 -70 l-5 -46 39 20 c39 20 39 20 78 0 l39 -20 -7 43 c-6 39 -4 45 26 76
l32 33 -30 1 c-45 1 -65 12 -84 49 l-18 35 -17 -37z"/>
<path d="M665 531 c-71 -32 -143 -134 -120 -171 4 -6 80 -10 206 -10 221 0
220 0 200 63 -14 42 -74 101 -123 122 -49 20 -114 19 -163 -4z"/>
</g>
</svg>
